<?xml version="1.0" encoding="UTF-8"?>
<svg xmlns="http://www.w3.org/2000/svg" width="816" height="1056" viewBox="0 0 816 1056">
  <rect width="816" height="1056" fill="white"/>
  <text x="408" y="34" text-anchor="middle"
        font-family="Arial Black,Impact,Arial" font-size="22" font-weight="900" fill="#111">💧 SQUIRTLE — Puppet Template</text>
  <text x="408" y="52" text-anchor="middle"
        font-family="Arial" font-size="9.5" fill="#888">Trace each shape onto the matching colour paper · cut out · layer onto a craft stick</text>
  <line x1="24" y1="62" x2="792" y2="62" stroke="#CCC" stroke-width="1.5"/>
  <text x="408" y="77" text-anchor="middle" font-family="Arial,Helvetica" font-size="8.5" font-weight="normal" fill="#AAAAAA">LARGE  (3-3.5")  —  trace onto BLUE paper</text>
  <ellipse cx="205" cy="275" rx="168" ry="168" fill="#4A8FD4" stroke="#222" stroke-width="2.5" opacity="1"/>
  <rect x="113" y="447" width="184" height="16" rx="5" fill="#4A8FD4" opacity="0.28" stroke="#4A8FD4" stroke-width="1.2"/>
  <text x="205" y="458.5" text-anchor="middle" font-family="Arial" font-size="9" font-weight="bold" fill="#111">BLUE — Body  (3.5" circle)</text>
  <ellipse cx="590" cy="258" rx="145" ry="138" fill="#4A8FD4" stroke="#222" stroke-width="2.5" opacity="1"/>
  <rect x="527" y="400" width="127" height="16" rx="5" fill="#4A8FD4" opacity="0.28" stroke="#4A8FD4" stroke-width="1.2"/>
  <text x="590" y="411.5" text-anchor="middle" font-family="Arial" font-size="9" font-weight="bold" fill="#111">BLUE — Head  (3")</text>
  <line x1="28" y1="468" x2="788" y2="468" stroke="#E8E8E8" stroke-width="1" stroke-dasharray="5,4"/>
  <text x="408" y="486" text-anchor="middle" font-family="Arial,Helvetica" font-size="8.5" font-weight="normal" fill="#AAAAAA">MEDIUM  —  shell (brown), plastron (cream), tail, cheek marks</text>
  <ellipse cx="185" cy="602" rx="138" ry="96" fill="#9B7820" stroke="#222" stroke-width="2.5" opacity="1"/>
  <rect x="83" y="702" width="204" height="16" rx="5" fill="#9B7820" opacity="0.28" stroke="#9B7820" stroke-width="1.2"/>
  <text x="185" y="713.5" text-anchor="middle" font-family="Arial" font-size="9" font-weight="bold" fill="#111">BROWN — Shell Dome  (2.5"×2")</text>
  <ellipse cx="385" cy="598" rx="78" ry="108" fill="#FFF5DC" stroke="#222" stroke-width="2.5" opacity="1"/>
  <rect x="238" y="710" width="293" height="16" rx="5" fill="#FFF5DC" opacity="0.28" stroke="#FFF5DC" stroke-width="1.2"/>
  <text x="385" y="721.5" text-anchor="middle" font-family="Arial" font-size="9" font-weight="bold" fill="#111">CREAM — Shell Front / Plastron  (1.5"×2.2")</text>
  <polygon points="540,575 592,548 626,586 616,642 570,666 534,640" fill="#4A8FD4" stroke="#222" stroke-width="2.5"/>
  <rect x="506" y="672" width="152" height="16" rx="5" fill="#4A8FD4" opacity="0.28" stroke="#4A8FD4" stroke-width="1.2"/>
  <text x="582" y="683.5" text-anchor="middle" font-family="Arial" font-size="9" font-weight="bold" fill="#111">BLUE — Tail  (curled)</text>
  <ellipse cx="695" cy="600" rx="5" ry="18" fill="#2A5FA0" stroke="#222" stroke-width="2.5" opacity="1"/>
  <ellipse cx="768" cy="600" rx="5" ry="18" fill="#2A5FA0" stroke="#222" stroke-width="2.5" opacity="1"/>
  <ellipse cx="715" cy="600" rx="5" ry="18" fill="#2A5FA0" stroke="#222" stroke-width="2.5" opacity="1"/>
  <ellipse cx="788" cy="600" rx="5" ry="18" fill="#2A5FA0" stroke="#222" stroke-width="2.5" opacity="1"/>
  <ellipse cx="735" cy="600" rx="5" ry="18" fill="#2A5FA0" stroke="#222" stroke-width="2.5" opacity="1"/>
  <ellipse cx="808" cy="600" rx="5" ry="18" fill="#2A5FA0" stroke="#222" stroke-width="2.5" opacity="1"/>
  <rect x="605" y="624" width="287" height="16" rx="5" fill="#2A5FA0" opacity="0.28" stroke="#2A5FA0" stroke-width="1.2"/>
  <text x="748" y="635.5" text-anchor="middle" font-family="Arial" font-size="9" font-weight="bold" fill="#111">DARK BLUE — Cheek Lines  ×6  (3 per cheek)</text>
  <line x1="28" y1="742" x2="788" y2="742" stroke="#E8E8E8" stroke-width="1" stroke-dasharray="5,4"/>
  <text x="408" y="758" text-anchor="middle" font-family="Arial,Helvetica" font-size="8.5" font-weight="normal" fill="#AAAAAA">SMALL  —  eyes; note: draw curved lines on shell for hex pattern</text>
  <ellipse cx="105" cy="836" rx="28" ry="34" fill="#1A1A1A" stroke="#222" stroke-width="2.5" opacity="1"/>
  <ellipse cx="205" cy="836" rx="28" ry="34" fill="#1A1A1A" stroke="#222" stroke-width="2.5" opacity="1"/>
  <rect x="95" y="874" width="120" height="16" rx="5" fill="#1A1A1A" opacity="0.28" stroke="#1A1A1A" stroke-width="1.2"/>
  <text x="155" y="885.5" text-anchor="middle" font-family="Arial" font-size="9" font-weight="bold" fill="#111">BLACK — Eyes  ×2</text>
  <line x1="28" y1="892" x2="788" y2="892" stroke="#E8E8E8" stroke-width="1" stroke-dasharray="5,4"/>
  <text x="408" y="902" text-anchor="middle" font-family="Arial,Helvetica" font-size="8.5" font-weight="normal" fill="#AAAAAA">ASSEMBLED — how the pieces look when put together</text>
  <rect x="300" y="912" width="216" height="128" rx="6" fill="#F8F8F8" stroke="#DDD" stroke-width="1.5"/>
  <ellipse cx="408" cy="990" rx="37" ry="37" fill="#4A8FD4" stroke="#222" stroke-width="2.5" opacity="1"/>
  <ellipse cx="408" cy="952" rx="32" ry="30" fill="#4A8FD4" stroke="#222" stroke-width="2.5" opacity="1"/>
  <ellipse cx="408" cy="990" rx="26" ry="20" fill="#9B7820" stroke="#222" stroke-width="2.5" opacity="1"/>
  <ellipse cx="408" cy="990" rx="13" ry="22" fill="#FFF5DC" stroke="#222" stroke-width="2.5" opacity="1"/>
  <ellipse cx="400" cy="945" rx="6" ry="8" fill="#1A1A1A" stroke="#222" stroke-width="2.5" opacity="1"/>
  <ellipse cx="416" cy="945" rx="6" ry="8" fill="#1A1A1A" stroke="#222" stroke-width="2.5" opacity="1"/>
  <polygon points="434,979 446,974 451,991 441,1004 427,1001" fill="#4A8FD4" stroke="#222" stroke-width="2.5"/>

  <text x="408" y="1044" text-anchor="middle"
        font-family="Arial" font-size="7.5" fill="#CCC">Print at 100% · 96 px = 1 inch · Pokemon puppet craft</text>
</svg>