<?xml version="1.0" encoding="UTF-8"?>
<svg xmlns="http://www.w3.org/2000/svg" width="816" height="1056" viewBox="0 0 816 1056">
  <rect width="816" height="1056" fill="white"/>
  <text x="408" y="34" text-anchor="middle"
        font-family="Arial Black,Impact,Arial" font-size="22" font-weight="900" fill="#111">🔥 TORCHIC — Puppet Template</text>
  <text x="408" y="52" text-anchor="middle"
        font-family="Arial" font-size="9.5" fill="#888">Trace each shape onto the matching colour paper · cut out · layer onto a craft stick</text>
  <line x1="24" y1="62" x2="792" y2="62" stroke="#CCC" stroke-width="1.5"/>
  <text x="408" y="77" text-anchor="middle" font-family="Arial,Helvetica" font-size="8.5" font-weight="normal" fill="#AAAAAA">LARGE  (3-4")  —  trace onto ORANGE paper</text>
  <ellipse cx="205" cy="278" rx="182" ry="182" fill="#E8732A" stroke="#222" stroke-width="2.5" opacity="1"/>
  <rect x="84" y="464" width="242" height="16" rx="5" fill="#E8732A" opacity="0.28" stroke="#E8732A" stroke-width="1.2"/>
  <text x="205" y="475.5" text-anchor="middle" font-family="Arial" font-size="9" font-weight="bold" fill="#111">ORANGE — Body  (3.5" round, fluffy)</text>
  <ellipse cx="590" cy="258" rx="145" ry="145" fill="#E8732A" stroke="#222" stroke-width="2.5" opacity="1"/>
  <rect x="520" y="407" width="140" height="16" rx="5" fill="#E8732A" opacity="0.28" stroke="#E8732A" stroke-width="1.2"/>
  <text x="590" y="418.5" text-anchor="middle" font-family="Arial" font-size="9" font-weight="bold" fill="#111">ORANGE — Head  (3")</text>
  <line x1="28" y1="478" x2="788" y2="478" stroke="#E8E8E8" stroke-width="1" stroke-dasharray="5,4"/>
  <text x="408" y="494" text-anchor="middle" font-family="Arial,Helvetica" font-size="8.5" font-weight="normal" fill="#AAAAAA">MEDIUM  —  head crest (red), belly (cream), beak (yellow), feet</text>
  <path d="M 185,490 C 215,540.4   215,605.2   185,634 C 155,605.2   155,540.4   185,490 Z" fill="#D93030" stroke="#222" stroke-width="2.5"/>
  <rect x="58" y="638" width="255" height="16" rx="5" fill="#D93030" opacity="0.28" stroke="#D93030" stroke-width="1.2"/>
  <text x="185" y="649.5" text-anchor="middle" font-family="Arial" font-size="9" font-weight="bold" fill="#111">RED — Head Crest Feather  (0.6"×1.5")</text>
  <ellipse cx="385" cy="600" rx="95" ry="118" fill="#FFF5DC" stroke="#222" stroke-width="2.5" opacity="1"/>
  <rect x="299" y="722" width="172" height="16" rx="5" fill="#FFF5DC" opacity="0.28" stroke="#FFF5DC" stroke-width="1.2"/>
  <text x="385" y="733.5" text-anchor="middle" font-family="Arial" font-size="9" font-weight="bold" fill="#111">CREAM — Belly  (2"×2.4")</text>
  <polygon points="560,570 620,570 590,612" fill="#FFD84D" stroke="#222" stroke-width="2.5"/>
  <polygon points="568,614 612,614 590,638" fill="#FFD84D" stroke="#222" stroke-width="2.5"/>
  <rect x="443" y="644" width="293" height="16" rx="5" fill="#FFD84D" opacity="0.28" stroke="#FFD84D" stroke-width="1.2"/>
  <text x="590" y="655.5" text-anchor="middle" font-family="Arial" font-size="9" font-weight="bold" fill="#111">YELLOW — Beak  ×2  (upper & lower triangle)</text>
  <ellipse cx="700" cy="610" rx="42" ry="24" fill="#FFD84D" stroke="#222" stroke-width="2.5" opacity="1"/>
  <ellipse cx="775" cy="618" rx="38" ry="22" fill="#FFD84D" stroke="#222" stroke-width="2.5" opacity="1"/>
  <rect x="675" y="638" width="127" height="16" rx="5" fill="#FFD84D" opacity="0.28" stroke="#FFD84D" stroke-width="1.2"/>
  <text x="738" y="649.5" text-anchor="middle" font-family="Arial" font-size="9" font-weight="bold" fill="#111">YELLOW — Feet  ×2</text>
  <line x1="28" y1="742" x2="788" y2="742" stroke="#E8E8E8" stroke-width="1" stroke-dasharray="5,4"/>
  <text x="408" y="758" text-anchor="middle" font-family="Arial,Helvetica" font-size="8.5" font-weight="normal" fill="#AAAAAA">SMALL  —  eyes</text>
  <ellipse cx="105" cy="836" rx="26" ry="32" fill="#1A1A1A" stroke="#222" stroke-width="2.5" opacity="1"/>
  <ellipse cx="205" cy="836" rx="26" ry="32" fill="#1A1A1A" stroke="#222" stroke-width="2.5" opacity="1"/>
  <rect x="95" y="872" width="120" height="16" rx="5" fill="#1A1A1A" opacity="0.28" stroke="#1A1A1A" stroke-width="1.2"/>
  <text x="155" y="883.5" text-anchor="middle" font-family="Arial" font-size="9" font-weight="bold" fill="#111">BLACK — Eyes  ×2</text>
  <line x1="28" y1="892" x2="788" y2="892" stroke="#E8E8E8" stroke-width="1" stroke-dasharray="5,4"/>
  <text x="408" y="902" text-anchor="middle" font-family="Arial,Helvetica" font-size="8.5" font-weight="normal" fill="#AAAAAA">ASSEMBLED — how the pieces look when put together</text>
  <rect x="300" y="912" width="216" height="128" rx="6" fill="#F8F8F8" stroke="#DDD" stroke-width="1.5"/>
  <ellipse cx="408" cy="990" rx="40" ry="40" fill="#E8732A" stroke="#222" stroke-width="2.5" opacity="1"/>
  <ellipse cx="408" cy="988" rx="28" ry="20" fill="#FFF5DC" stroke="#222" stroke-width="2.5" opacity="1"/>
  <ellipse cx="408" cy="950" rx="32" ry="32" fill="#E8732A" stroke="#222" stroke-width="2.5" opacity="1"/>
  <ellipse cx="408" cy="926" rx="7" ry="15" fill="#D93030" stroke="#222" stroke-width="2.5" opacity="1"/>
  <polygon points="404,957 412,957 408,966" fill="#FFD84D" stroke="#222" stroke-width="2.5"/>
  <ellipse cx="400" cy="946" rx="5" ry="7" fill="#1A1A1A" stroke="#222" stroke-width="2.5" opacity="1"/>
  <ellipse cx="416" cy="946" rx="5" ry="7" fill="#1A1A1A" stroke="#222" stroke-width="2.5" opacity="1"/>

  <text x="408" y="1044" text-anchor="middle"
        font-family="Arial" font-size="7.5" fill="#CCC">Print at 100% · 96 px = 1 inch · Pokemon puppet craft</text>
</svg>